PathFileType	4	(X/Y/Z)	G:\マイドライブ\biomec\experimentalData\240725\static1.trc
DataRate	CameraRate	NumFrames	NumMarkers	Units	OrigDataRate	OrigDataStartFrame	OrigNumFrames
200.00	200.00	       4	52	mm	200.00	730	       834
Frame#	Time	handR			wrRI			wrRO			elbRI			elbRO			shRF			shRU			shRB			handL			wrLI			wrLO			elbLI			elbLO			shLF			shLU			shLB			toeR			baRI			baRO			heelR			anRI			anRO			knRI			knRO			troR			toeL			baLI			baLO			heelL			anLI			anLO			knLI			knLO			troL			head			earR			earL			clav			c7			ribR			ribL			xiph			ASISR			ASISL			PSISR			PSISL			t8			t11			L1			L3			LS			COX			
		X1	Y1	Z1	X2	Y2	Z2	X3	Y3	Z3	X4	Y4	Z4	X5	Y5	Z5	X6	Y6	Z6	X7	Y7	Z7	X8	Y8	Z8	X9	Y9	Z9	X10	Y10	Z10	X11	Y11	Z11	X12	Y12	Z12	X13	Y13	Z13	X14	Y14	Z14	X15	Y15	Z15	X16	Y16	Z16	X17	Y17	Z17	X18	Y18	Z18	X19	Y19	Z19	X20	Y20	Z20	X21	Y21	Z21	X22	Y22	Z22	X23	Y23	Z23	X24	Y24	Z24	X25	Y25	Z25	X26	Y26	Z26	X27	Y27	Z27	X28	Y28	Z28	X29	Y29	Z29	X30	Y30	Z30	X31	Y31	Z31	X32	Y32	Z32	X33	Y33	Z33	X34	Y34	Z34	X35	Y35	Z35	X36	Y36	Z36	X37	Y37	Z37	X38	Y38	Z38	X39	Y39	Z39	X40	Y40	Z40	X41	Y41	Z41	X42	Y42	Z42	X43	Y43	Z43	X44	Y44	Z44	X45	Y45	Z45	X46	Y46	Z46	X47	Y47	Z47	X48	Y48	Z48	X49	Y49	Z49	X50	Y50	Z50	X51	Y51	Z51	X52	Y52	Z52	

730	3.645	481.53525	296.60880	995.67023	483.12125	385.92380	1024.78369	523.45282	351.97949	1068.00818	567.76825	577.93011	1158.86011	509.82089	554.94171	1189.54150	603.77460	724.90460	1417.42847	541.62048	705.26764	1437.67285	497.93878	715.79437	1393.39075	514.22601	1464.28381	958.65887	508.08362	1376.03442	996.23138	545.00952	1425.45264	1036.92529	551.19757	1198.45374	1145.21228	505.20050	1234.01453	1180.94250	604.03778	1050.59839	1402.94958	545.91028	1074.77356	1423.81262	494.57254	1049.23059	1377.14783	725.73590	730.27972	51.31451	643.48309	772.71057	48.11847	624.76221	651.82794	43.92461	438.68875	729.42596	40.22472	521.74323	770.79919	112.54925	506.74591	677.37152	102.21277	528.52917	796.41272	468.25900	549.48737	692.31171	476.43802	596.21973	708.62677	868.71210	725.72394	1024.81921	53.01664	649.89880	978.27820	50.70279	627.08960	1092.20959	47.38808	438.05795	1031.76050	38.07620	527.57086	985.74213	130.16339	504.12695	1073.39526	104.83292	520.06219	960.52539	471.44434	526.30835	1067.81299	483.70001	575.47955	1053.35974	853.27527	540.58795	893.47644	1705.31934	639.93829	806.38678	1567.10779	646.27515	965.85999	1565.94861	650.07196	890.99896	1393.09241	529.68561	895.07520	1471.20422	632.32001	779.67755	1095.80786	630.04999	999.64270	1091.94507	679.64899	888.53729	1233.74451	657.48340	778.58014	950.46088	647.47388	999.71088	957.88007	483.96027	820.61285	999.52026	481.79840	944.25525	1000.37140	465.10294	891.86603	1261.38025	480.66977	890.52771	1137.26587	491.96802	891.96954	1080.12354	488.47095	886.55042	1033.78394	471.22366	883.94745	996.31665	440.98257	881.41852	894.28601	
731	3.650	481.51428	296.62354	995.67242	483.08795	385.94763	1024.79956	523.42529	351.99353	1068.02759	567.76404	577.94391	1158.88293	509.77051	554.95654	1189.57874	603.78369	724.92444	1417.45251	541.61536	705.28204	1437.69629	497.94720	715.81274	1393.41394	514.21509	1464.30383	958.67389	508.09656	1376.06836	996.24951	545.01550	1425.47913	1036.91650	551.21619	1198.48291	1145.21692	505.19992	1234.04260	1180.94482	604.05530	1050.64551	1402.94556	545.91669	1074.78723	1423.82861	494.59467	1049.24670	1377.14465	725.70856	730.28290	51.33176	643.45709	772.71570	48.13306	624.75848	651.84283	43.90884	438.69354	729.43219	40.25492	521.71271	770.80798	112.57838	506.72171	677.38165	102.21973	528.52618	796.42249	468.25415	549.48126	692.31958	476.44095	596.21393	708.61121	868.71698	725.72656	1024.83630	53.02856	649.87152	978.26990	50.70870	627.06641	1092.23694	47.38895	438.04053	1031.76331	38.09284	527.54425	985.74622	130.16505	504.15060	1073.37939	104.87186	520.05249	960.52924	471.45483	526.31873	1067.81042	483.69742	575.51190	1053.36523	853.26385	540.68219	893.47693	1705.34473	639.93280	806.40125	1567.08691	646.33948	965.87061	1565.93604	650.06134	891.02692	1393.08508	529.66870	895.09515	1471.19714	632.32281	779.67133	1095.81384	630.09338	999.64917	1091.92981	679.64935	888.55261	1233.75793	657.48749	778.57373	950.47906	647.46692	999.71509	957.89520	483.94943	820.63922	999.53180	481.80167	944.25909	1000.39581	465.10858	891.85028	1261.38892	480.65036	890.53296	1137.29431	491.97971	891.97443	1080.12427	488.45200	886.56921	1033.78796	471.21912	883.94501	996.33856	440.99899	881.42084	894.30127	
732	3.655	481.50720	296.64722	995.67853	483.07114	385.97595	1024.81165	523.41687	352.01273	1068.03564	567.76440	577.95605	1158.88757	509.78000	554.97278	1189.57813	603.75342	724.94635	1417.48364	541.58984	705.30762	1437.71155	497.92316	715.84741	1393.42297	514.23669	1464.32764	958.68091	508.11978	1376.09033	996.22687	545.03583	1425.49121	1036.91528	551.21344	1198.51831	1145.21228	505.25223	1234.08459	1180.94165	604.03748	1050.64734	1402.94165	545.91687	1074.84216	1423.81213	494.58530	1049.29285	1377.13806	725.72754	730.28430	51.32383	643.47223	772.71161	48.13047	624.73181	651.82843	43.92680	438.70053	729.41864	40.24010	521.72711	770.79614	112.54298	506.73743	677.37604	102.20757	528.53021	796.41089	468.24994	549.47235	692.30804	476.43735	596.20471	708.60944	868.73395	725.71710	1024.83765	53.02834	649.87286	978.27985	50.71362	627.04865	1092.22949	47.37590	438.05582	1031.77893	38.06932	527.57404	985.74664	130.16136	504.12387	1073.38647	104.88421	520.06006	960.53705	471.45007	526.30835	1067.80444	483.69324	575.54211	1053.37097	853.25861	540.78448	893.47778	1705.38098	639.98248	806.41071	1567.06519	646.33136	965.90125	1565.91577	650.03650	891.03632	1393.08789	529.65643	895.12128	1471.18896	632.36499	779.67230	1095.83984	630.13788	999.66602	1091.93481	679.65533	888.56622	1233.80298	657.50220	778.55322	950.46948	647.50177	999.69708	957.88306	483.97586	820.64807	999.53833	481.83786	944.27350	1000.38477	465.09750	891.88855	1261.38831	480.66019	890.54968	1137.27344	492.00879	891.97888	1080.11487	488.48364	886.57367	1033.78357	471.24301	883.97101	996.32800	440.98413	881.43518	894.32245	
733	3.660	481.47681	296.68033	995.68988	483.05624	385.99277	1024.81213	523.40997	352.01804	1068.04114	567.75446	577.94794	1158.90540	509.77402	555.00513	1189.59485	603.74292	724.96344	1417.49976	541.56561	705.32190	1437.73584	497.91617	715.84009	1393.43103	514.24097	1464.35547	958.68030	508.12845	1376.10962	996.24176	545.04218	1425.51733	1036.91223	551.23627	1198.53015	1145.19861	505.26447	1234.11743	1180.94128	604.03790	1050.66089	1402.94458	545.92847	1074.81909	1423.82214	494.60748	1049.31409	1377.13281	725.72546	730.28717	51.33417	643.48425	772.69476	48.11652	624.73981	651.83313	43.92978	438.69345	729.43219	40.23341	521.76459	770.79761	112.57840	506.72699	677.36847	102.20983	528.51709	796.42761	468.25830	549.46271	692.29669	476.45187	596.18707	708.63049	868.73785	725.72614	1024.84106	53.01237	649.88452	978.28314	50.72264	627.07910	1092.20679	47.36478	438.03571	1031.75085	38.09076	527.55029	985.73950	130.17294	504.14371	1073.39392	104.83583	520.05786	960.52167	471.44958	526.33185	1067.81067	483.70349	575.53851	1053.35388	853.25397	540.88202	893.49518	1705.39807	639.99402	806.39417	1567.04797	646.39404	965.91449	1565.92493	650.04626	891.05817	1393.09558	529.67285	895.14655	1471.19714	632.39624	779.65369	1095.84875	630.16925	999.66138	1091.94080	679.67560	888.55273	1233.81433	657.49219	778.56921	950.47296	647.55261	999.66528	957.89478	483.96625	820.64789	999.54871	481.86896	944.28436	1000.38666	465.09781	891.90833	1261.36816	480.68179	890.55670	1137.24951	492.00775	891.99646	1080.14001	488.49442	886.58240	1033.77307	471.27570	883.96832	996.31329	441.00281	881.44171	894.31366	
